<svg xmlns="http://www.w3.org/2000/svg" width="59.934" height="63.998" viewBox="0 0 59.934 63.998">
  <defs>
    <style>
      .cls-1 {
        fill: #30c8d9;
        stroke: #707070;
      }
    </style>
  </defs>
  <path id="Path_9" data-name="Path 9" class="cls-1" d="M2336.945,2727.279a20.237,20.237,0,0,1-1.083,3.116s-.631,1.78-2.571.593c-.587-.359-1.764-3.325-3.563-6.577a129.27,129.27,0,0,0-10.644-16.517c-1.711-2.146-5.327-5.266-5.469-5.742a4.321,4.321,0,0,1,.972-3.481,3.068,3.068,0,0,1,1.848-1.177,4.5,4.5,0,0,1,1.657.115c5.413.89,14.794,6.577,14.794,6.577s22.018-27.032,29.234-32.4,9.4-2.739,9.4-2.739,1.561.8.382,3.348c-.582,1.256-11.574,11.312-20.018,24.391A167.667,167.667,0,0,0,2336.945,2727.279Z" transform="translate(-2312.989 -2667.908)"/>
</svg>
