<svg xmlns="http://www.w3.org/2000/svg" width="65.824" height="52.811" viewBox="0 0 65.824 52.811">
  <defs>
    <style>
      .cls-1 {
        fill: #1c739f;
        stroke: #707070;
      }
    </style>
  </defs>
  <path id="Path_8" data-name="Path 8" class="cls-1" d="M2378.3,2674.922s-9.04,10.245-11.481,16.452-11.572,1.2-11.572,1.2-5.6-3.291-3.616-6.73,17.049-17.479,17.049-17.479.412-.262-.126-.812S2352,2655.086,2352,2655.086s-1.4-2.486,1.781-2.915a22.044,22.044,0,0,1,6.065.084l17.237,8.644s.433.211.669,0,25.824-18.2,34.424-18.1,0,5,0,5-25.142,16.611-25.759,19.231,12.046,9.909,16.747,16.788-4.691,10.306-5.637,10.545a6.505,6.505,0,0,1-2.667.153,4.285,4.285,0,0,1-1.86-1.072c-.288-.255-3.472-5.175-7.1-9.771-3.581-4.534-7.606-8.743-7.6-8.755" transform="translate(-2350.689 -2642.298)"/>
</svg>
